<svg xmlns="http://www.w3.org/2000/svg" xmlns:xlink="http://www.w3.org/1999/xlink" width="500" zoomAndPan="magnify" viewBox="0 0 375 374.999991" height="500" preserveAspectRatio="xMidYMid meet" version="1.0"><defs><g/><clipPath id="id1"><path d="M 146 135 L 349.003906 135 L 349.003906 317.25 L 146 317.25 Z M 146 135 " clip-rule="nonzero"/></clipPath><clipPath id="id2"><path d="M 25.753906 0 L 300 0 L 300 317.25 L 25.753906 317.25 Z M 25.753906 0 " clip-rule="nonzero"/></clipPath></defs><g clip-path="url(#id1)"><path fill="#a4c639" d="M 244.492188 135.5 L 230.964844 158.847656 L 309.082031 293.882812 L 258.46875 293.882812 L 209.472656 208.910156 L 146.304688 317.253906 L 173.394531 317.253906 L 209.359375 255.570312 L 244.929688 317.253906 L 349.636719 317.253906 L 244.492188 135.5 " fill-opacity="1" fill-rule="nonzero"/></g><g clip-path="url(#id2)"><path fill="#608621" d="M 299.734375 72.613281 L 298.519531 -0.00390625 L 236.113281 37.355469 L 258.367188 49.6875 L 116.855469 293.882812 L 66.222656 293.882812 L 187.652344 83.980469 L 208.652344 120.28125 L 222.179688 96.929688 L 187.652344 37.238281 L 25.667969 317.253906 L 130.359375 317.253906 L 134.769531 309.648438 L 278.839844 61.03125 L 299.734375 72.613281 " fill-opacity="1" fill-rule="nonzero"/></g><g fill="#608621" fill-opacity="1"><g transform="translate(23.934672, 347.194889)"><g><path d="M 5.015625 0 L 5.015625 -22.21875 L 0.453125 -22.21875 L 0.453125 -24.71875 L 12.328125 -24.71875 L 12.328125 -22.21875 L 7.765625 -22.21875 L 7.765625 0 Z M 5.015625 0 "/></g></g></g><g fill="#608621" fill-opacity="1"><g transform="translate(40.91944, 347.194889)"><g><path d="M 4.171875 -11.125 L 4.171875 0 L 1.40625 0 L 1.40625 -24.71875 L 4.171875 -24.71875 L 4.171875 -13.59375 L 10.234375 -13.59375 L 10.234375 -24.71875 L 13 -24.71875 L 13 0 L 10.234375 0 L 10.234375 -11.125 Z M 4.171875 -11.125 "/></g></g></g><g fill="#608621" fill-opacity="1"><g transform="translate(59.493085, 347.194889)"><g><path d="M 10.203125 -13.765625 L 10.203125 -11.296875 L 4.171875 -11.296875 L 4.171875 -2.5 L 11.578125 -2.5 L 11.578125 0 L 1.40625 0 L 1.40625 -24.71875 L 11.578125 -24.71875 L 11.578125 -22.21875 L 4.171875 -22.21875 L 4.171875 -13.765625 Z M 10.203125 -13.765625 "/></g></g></g><g fill="#608621" fill-opacity="1"><g transform="translate(76.371922, 347.194889)"><g/></g></g><g fill="#608621" fill-opacity="1"><g transform="translate(86.012531, 347.194889)"><g><path d="M 4.203125 -4.984375 L 3.25 0 L 0.703125 0 L 5.4375 -24.71875 L 9.421875 -24.71875 L 14.15625 0 L 11.40625 0 L 10.453125 -4.984375 Z M 4.5625 -7.34375 L 10.0625 -7.34375 L 7.28125 -21.609375 Z M 4.5625 -7.34375 "/></g></g></g><g fill="#608621" fill-opacity="1"><g transform="translate(105.080493, 347.194889)"><g><path d="M 6.8125 -24.71875 C 8.769531 -24.71875 10.179688 -24.179688 11.046875 -23.109375 C 11.921875 -22.035156 12.359375 -20.5625 12.359375 -18.6875 L 12.359375 -15.71875 C 12.359375 -13.738281 11.890625 -12.25 10.953125 -11.25 C 10.023438 -10.25 8.578125 -9.75 6.609375 -9.75 L 4.171875 -9.75 L 4.171875 0 L 1.40625 0 L 1.40625 -24.71875 Z M 6.609375 -12.21875 C 7.640625 -12.21875 8.398438 -12.46875 8.890625 -12.96875 C 9.390625 -13.476562 9.640625 -14.332031 9.640625 -15.53125 L 9.640625 -18.828125 C 9.640625 -19.953125 9.421875 -20.796875 8.984375 -21.359375 C 8.546875 -21.929688 7.820312 -22.21875 6.8125 -22.21875 L 4.171875 -22.21875 L 4.171875 -12.21875 Z M 6.609375 -12.21875 "/></g></g></g><g fill="#608621" fill-opacity="1"><g transform="translate(122.347724, 347.194889)"><g><path d="M 10.203125 -13.765625 L 10.203125 -11.296875 L 4.171875 -11.296875 L 4.171875 -2.5 L 11.578125 -2.5 L 11.578125 0 L 1.40625 0 L 1.40625 -24.71875 L 11.578125 -24.71875 L 11.578125 -22.21875 L 4.171875 -22.21875 L 4.171875 -13.765625 Z M 10.203125 -13.765625 "/></g></g></g><g fill="#608621" fill-opacity="1"><g transform="translate(139.226558, 347.194889)"><g><path d="M 7.5625 -10.671875 L 3.421875 0 L 0.8125 0 L 5.796875 -12.75 L 1.125 -24.71875 L 3.984375 -24.71875 L 7.796875 -14.828125 L 11.65625 -24.71875 L 14.234375 -24.71875 L 9.609375 -12.75 L 14.546875 0 L 11.65625 0 Z M 7.5625 -10.671875 "/></g></g></g><g fill="#608621" fill-opacity="1"><g transform="translate(158.753534, 347.194889)"><g/></g></g><g fill="#608621" fill-opacity="1"><g transform="translate(168.39415, 347.194889)"><g><path d="M 6.953125 -24.71875 C 8.890625 -24.71875 10.269531 -24.265625 11.09375 -23.359375 C 11.914062 -22.453125 12.328125 -21.082031 12.328125 -19.25 L 12.328125 -18.078125 C 12.328125 -16.765625 12.113281 -15.703125 11.6875 -14.890625 C 11.257812 -14.078125 10.503906 -13.503906 9.421875 -13.171875 C 10.628906 -12.835938 11.484375 -12.210938 11.984375 -11.296875 C 12.492188 -10.378906 12.75 -9.238281 12.75 -7.875 L 12.75 -5.796875 C 12.75 -3.929688 12.289062 -2.5 11.375 -1.5 C 10.457031 -0.5 9.03125 0 7.09375 0 L 1.40625 0 L 1.40625 -24.71875 Z M 6.28125 -14.234375 C 7.382812 -14.234375 8.210938 -14.457031 8.765625 -14.90625 C 9.328125 -15.351562 9.609375 -16.222656 9.609375 -17.515625 L 9.609375 -18.96875 C 9.609375 -20.070312 9.398438 -20.890625 8.984375 -21.421875 C 8.578125 -21.953125 7.878906 -22.21875 6.890625 -22.21875 L 4.171875 -22.21875 L 4.171875 -14.234375 Z M 7.09375 -2.5 C 9.050781 -2.5 10.03125 -3.617188 10.03125 -5.859375 L 10.03125 -8.046875 C 10.03125 -9.441406 9.753906 -10.398438 9.203125 -10.921875 C 8.648438 -11.453125 7.769531 -11.71875 6.5625 -11.71875 L 4.171875 -11.71875 L 4.171875 -2.5 Z M 7.09375 -2.5 "/></g></g></g><g fill="#608621" fill-opacity="1"><g transform="translate(186.402859, 347.194889)"><g><path d="M 4.203125 -4.984375 L 3.25 0 L 0.703125 0 L 5.4375 -24.71875 L 9.421875 -24.71875 L 14.15625 0 L 11.40625 0 L 10.453125 -4.984375 Z M 4.5625 -7.34375 L 10.0625 -7.34375 L 7.28125 -21.609375 Z M 4.5625 -7.34375 "/></g></g></g><g fill="#608621" fill-opacity="1"><g transform="translate(205.470827, 347.194889)"><g><path d="M 3.84375 0 L 1.375 0 L 1.375 -24.71875 L 4.875 -24.71875 L 10.59375 -6.84375 L 10.59375 -24.71875 L 13.03125 -24.71875 L 13.03125 0 L 10.171875 0 L 3.84375 -19.984375 Z M 3.84375 0 "/></g></g></g><g fill="#608621" fill-opacity="1"><g transform="translate(224.079788, 347.194889)"><g><path d="M 5.609375 -10.734375 L 4.171875 -8.296875 L 4.171875 0 L 1.40625 0 L 1.40625 -24.71875 L 4.171875 -24.71875 L 4.171875 -12.78125 L 10.734375 -24.71875 L 13.53125 -24.71875 L 7.28125 -13.453125 L 13.734375 0 L 10.90625 0 Z M 5.609375 -10.734375 "/></g></g></g><g fill="#608621" fill-opacity="1"><g transform="translate(242.688749, 347.194889)"><g/></g></g><g fill="#608621" fill-opacity="1"><g transform="translate(252.329352, 347.194889)"><g><path d="M 6.609375 -24.96875 C 8.484375 -24.96875 9.867188 -24.40625 10.765625 -23.28125 C 11.660156 -22.164062 12.109375 -20.664062 12.109375 -18.78125 L 12.109375 -18.109375 L 9.5 -18.109375 L 9.5 -18.921875 C 9.5 -20.054688 9.273438 -20.925781 8.828125 -21.53125 C 8.378906 -22.144531 7.660156 -22.453125 6.671875 -22.453125 C 5.679688 -22.453125 4.960938 -22.144531 4.515625 -21.53125 C 4.066406 -20.925781 3.84375 -20.070312 3.84375 -18.96875 C 3.84375 -18.039062 4.046875 -17.234375 4.453125 -16.546875 C 4.867188 -15.867188 5.382812 -15.242188 6 -14.671875 C 6.613281 -14.097656 7.28125 -13.53125 8 -12.96875 C 8.71875 -12.414062 9.378906 -11.8125 9.984375 -11.15625 C 10.597656 -10.5 11.109375 -9.75 11.515625 -8.90625 C 11.929688 -8.070312 12.140625 -7.082031 12.140625 -5.9375 C 12.140625 -4.050781 11.6875 -2.546875 10.78125 -1.421875 C 9.875 -0.304688 8.46875 0.25 6.5625 0.25 C 4.65625 0.25 3.253906 -0.304688 2.359375 -1.421875 C 1.472656 -2.546875 1.03125 -4.050781 1.03125 -5.9375 L 1.03125 -7.34375 L 3.609375 -7.34375 L 3.609375 -5.796875 C 3.609375 -4.660156 3.84375 -3.785156 4.3125 -3.171875 C 4.78125 -2.566406 5.507812 -2.265625 6.5 -2.265625 C 7.488281 -2.265625 8.21875 -2.566406 8.6875 -3.171875 C 9.15625 -3.785156 9.390625 -4.660156 9.390625 -5.796875 C 9.390625 -6.710938 9.179688 -7.503906 8.765625 -8.171875 C 8.359375 -8.847656 7.847656 -9.472656 7.234375 -10.046875 C 6.628906 -10.617188 5.972656 -11.179688 5.265625 -11.734375 C 4.554688 -12.296875 3.894531 -12.90625 3.28125 -13.5625 C 2.664062 -14.21875 2.148438 -14.960938 1.734375 -15.796875 C 1.328125 -16.640625 1.125 -17.632812 1.125 -18.78125 C 1.125 -20.6875 1.570312 -22.191406 2.46875 -23.296875 C 3.363281 -24.410156 4.742188 -24.96875 6.609375 -24.96875 Z M 6.609375 -24.96875 "/></g></g></g><g fill="#608621" fill-opacity="1"><g transform="translate(269.631888, 347.194889)"><g><path d="M 4.984375 0 L 4.984375 -22.21875 L 0.421875 -22.21875 L 0.421875 -24.71875 L 12.25 -24.71875 L 12.25 -22.21875 L 7.703125 -22.21875 L 7.703125 0 Z M 4.984375 0 "/></g></g></g><g fill="#608621" fill-opacity="1"><g transform="translate(286.510716, 347.194889)"><g><path d="M 4.203125 -4.984375 L 3.25 0 L 0.703125 0 L 5.4375 -24.71875 L 9.421875 -24.71875 L 14.15625 0 L 11.40625 0 L 10.453125 -4.984375 Z M 4.5625 -7.34375 L 10.0625 -7.34375 L 7.28125 -21.609375 Z M 4.5625 -7.34375 "/></g></g></g><g fill="#608621" fill-opacity="1"><g transform="translate(305.578684, 347.194889)"><g><path d="M 9.859375 -13.203125 L 9.859375 -10.703125 L 4.171875 -10.703125 L 4.171875 0 L 1.40625 0 L 1.40625 -24.71875 L 11.234375 -24.71875 L 11.234375 -22.21875 L 4.171875 -22.21875 L 4.171875 -13.203125 Z M 9.859375 -13.203125 "/></g></g></g><g fill="#608621" fill-opacity="1"><g transform="translate(321.751364, 347.194889)"><g><path d="M 9.859375 -13.203125 L 9.859375 -10.703125 L 4.171875 -10.703125 L 4.171875 0 L 1.40625 0 L 1.40625 -24.71875 L 11.234375 -24.71875 L 11.234375 -22.21875 L 4.171875 -22.21875 L 4.171875 -13.203125 Z M 9.859375 -13.203125 "/></g></g></g><g fill="#608621" fill-opacity="1"><g transform="translate(337.924043, 347.194889)"><g><path d="M 6.609375 -24.96875 C 8.484375 -24.96875 9.867188 -24.40625 10.765625 -23.28125 C 11.660156 -22.164062 12.109375 -20.664062 12.109375 -18.78125 L 12.109375 -18.109375 L 9.5 -18.109375 L 9.5 -18.921875 C 9.5 -20.054688 9.273438 -20.925781 8.828125 -21.53125 C 8.378906 -22.144531 7.660156 -22.453125 6.671875 -22.453125 C 5.679688 -22.453125 4.960938 -22.144531 4.515625 -21.53125 C 4.066406 -20.925781 3.84375 -20.070312 3.84375 -18.96875 C 3.84375 -18.039062 4.046875 -17.234375 4.453125 -16.546875 C 4.867188 -15.867188 5.382812 -15.242188 6 -14.671875 C 6.613281 -14.097656 7.28125 -13.53125 8 -12.96875 C 8.71875 -12.414062 9.378906 -11.8125 9.984375 -11.15625 C 10.597656 -10.5 11.109375 -9.75 11.515625 -8.90625 C 11.929688 -8.070312 12.140625 -7.082031 12.140625 -5.9375 C 12.140625 -4.050781 11.6875 -2.546875 10.78125 -1.421875 C 9.875 -0.304688 8.46875 0.25 6.5625 0.25 C 4.65625 0.25 3.253906 -0.304688 2.359375 -1.421875 C 1.472656 -2.546875 1.03125 -4.050781 1.03125 -5.9375 L 1.03125 -7.34375 L 3.609375 -7.34375 L 3.609375 -5.796875 C 3.609375 -4.660156 3.84375 -3.785156 4.3125 -3.171875 C 4.78125 -2.566406 5.507812 -2.265625 6.5 -2.265625 C 7.488281 -2.265625 8.21875 -2.566406 8.6875 -3.171875 C 9.15625 -3.785156 9.390625 -4.660156 9.390625 -5.796875 C 9.390625 -6.710938 9.179688 -7.503906 8.765625 -8.171875 C 8.359375 -8.847656 7.847656 -9.472656 7.234375 -10.046875 C 6.628906 -10.617188 5.972656 -11.179688 5.265625 -11.734375 C 4.554688 -12.296875 3.894531 -12.90625 3.28125 -13.5625 C 2.664062 -14.21875 2.148438 -14.960938 1.734375 -15.796875 C 1.328125 -16.640625 1.125 -17.632812 1.125 -18.78125 C 1.125 -20.6875 1.570312 -22.191406 2.46875 -23.296875 C 3.363281 -24.410156 4.742188 -24.96875 6.609375 -24.96875 Z M 6.609375 -24.96875 "/></g></g></g><g fill="#608621" fill-opacity="1"><g transform="translate(24.699874, 368.468472)"><g><path d="M 6.125 -9.328125 C 5.238281 -9.328125 4.550781 -8.992188 4.0625 -8.328125 C 3.570312 -7.660156 3.328125 -6.726562 3.328125 -5.53125 C 3.328125 -3.050781 4.257812 -1.8125 6.125 -1.8125 C 6.90625 -1.8125 7.851562 -2.007812 8.96875 -2.40625 L 8.96875 -0.421875 C 8.050781 -0.0351562 7.03125 0.15625 5.90625 0.15625 C 4.289062 0.15625 3.050781 -0.332031 2.1875 -1.3125 C 1.332031 -2.300781 0.90625 -3.710938 0.90625 -5.546875 C 0.90625 -6.703125 1.113281 -7.710938 1.53125 -8.578125 C 1.957031 -9.453125 2.5625 -10.125 3.34375 -10.59375 C 4.132812 -11.0625 5.0625 -11.296875 6.125 -11.296875 C 7.207031 -11.296875 8.296875 -11.03125 9.390625 -10.5 L 8.625 -8.59375 C 8.207031 -8.789062 7.785156 -8.960938 7.359375 -9.109375 C 6.941406 -9.253906 6.53125 -9.328125 6.125 -9.328125 Z M 6.125 -9.328125 "/></g></g></g><g fill="#608621" fill-opacity="1"><g transform="translate(36.214415, 368.468472)"><g><path d="M 11.5 -5.578125 C 11.5 -3.734375 11.039062 -2.316406 10.125 -1.328125 C 9.21875 -0.335938 7.910156 0.15625 6.203125 0.15625 C 4.492188 0.15625 3.179688 -0.335938 2.265625 -1.328125 C 1.359375 -2.316406 0.90625 -3.738281 0.90625 -5.59375 C 0.90625 -7.445312 1.363281 -8.863281 2.28125 -9.84375 C 3.195312 -10.820312 4.507812 -11.3125 6.21875 -11.3125 C 7.925781 -11.3125 9.234375 -10.816406 10.140625 -9.828125 C 11.046875 -8.847656 11.5 -7.429688 11.5 -5.578125 Z M 3.375 -5.578125 C 3.375 -4.335938 3.609375 -3.398438 4.078125 -2.765625 C 4.554688 -2.140625 5.265625 -1.828125 6.203125 -1.828125 C 8.085938 -1.828125 9.03125 -3.078125 9.03125 -5.578125 C 9.03125 -8.085938 8.09375 -9.34375 6.21875 -9.34375 C 5.28125 -9.34375 4.570312 -9.023438 4.09375 -8.390625 C 3.613281 -7.765625 3.375 -6.828125 3.375 -5.578125 Z M 3.375 -5.578125 "/></g></g></g><g fill="#608621" fill-opacity="1"><g transform="translate(50.204164, 368.468472)"><g><path d="M 0.46875 -3.234375 L 0.46875 -5.125 L 4.546875 -5.125 L 4.546875 -3.234375 Z M 0.46875 -3.234375 "/></g></g></g><g fill="#608621" fill-opacity="1"><g transform="translate(56.798741, 368.468472)"><g><path d="M 11.5 -5.578125 C 11.5 -3.734375 11.039062 -2.316406 10.125 -1.328125 C 9.21875 -0.335938 7.910156 0.15625 6.203125 0.15625 C 4.492188 0.15625 3.179688 -0.335938 2.265625 -1.328125 C 1.359375 -2.316406 0.90625 -3.738281 0.90625 -5.59375 C 0.90625 -7.445312 1.363281 -8.863281 2.28125 -9.84375 C 3.195312 -10.820312 4.507812 -11.3125 6.21875 -11.3125 C 7.925781 -11.3125 9.234375 -10.816406 10.140625 -9.828125 C 11.046875 -8.847656 11.5 -7.429688 11.5 -5.578125 Z M 3.375 -5.578125 C 3.375 -4.335938 3.609375 -3.398438 4.078125 -2.765625 C 4.554688 -2.140625 5.265625 -1.828125 6.203125 -1.828125 C 8.085938 -1.828125 9.03125 -3.078125 9.03125 -5.578125 C 9.03125 -8.085938 8.09375 -9.34375 6.21875 -9.34375 C 5.28125 -9.34375 4.570312 -9.023438 4.09375 -8.390625 C 3.613281 -7.765625 3.375 -6.828125 3.375 -5.578125 Z M 3.375 -5.578125 "/></g></g></g><g fill="#608621" fill-opacity="1"><g transform="translate(70.788491, 368.468472)"><g><path d="M 3.765625 -5.890625 L 4.53125 -5.890625 C 5.257812 -5.890625 5.800781 -6.03125 6.15625 -6.3125 C 6.519531 -6.601562 6.703125 -7.023438 6.703125 -7.578125 C 6.703125 -8.128906 6.550781 -8.535156 6.25 -8.796875 C 5.945312 -9.066406 5.472656 -9.203125 4.828125 -9.203125 L 3.765625 -9.203125 Z M 9.09375 -7.65625 C 9.09375 -6.457031 8.71875 -5.539062 7.96875 -4.90625 C 7.21875 -4.269531 6.15625 -3.953125 4.78125 -3.953125 L 3.765625 -3.953125 L 3.765625 0 L 1.40625 0 L 1.40625 -11.125 L 4.953125 -11.125 C 6.304688 -11.125 7.332031 -10.832031 8.03125 -10.25 C 8.738281 -9.675781 9.09375 -8.8125 9.09375 -7.65625 Z M 9.09375 -7.65625 "/></g></g></g><g fill="#608621" fill-opacity="1"><g transform="translate(82.158321, 368.468472)"><g><path d="M 7.8125 0 L 1.40625 0 L 1.40625 -11.125 L 7.8125 -11.125 L 7.8125 -9.203125 L 3.765625 -9.203125 L 3.765625 -6.75 L 7.53125 -6.75 L 7.53125 -4.8125 L 3.765625 -4.8125 L 3.765625 -1.953125 L 7.8125 -1.953125 Z M 7.8125 0 "/></g></g></g><g fill="#608621" fill-opacity="1"><g transform="translate(92.469527, 368.468472)"><g><path d="M 3.765625 -6.1875 L 4.515625 -6.1875 C 5.265625 -6.1875 5.816406 -6.3125 6.171875 -6.5625 C 6.523438 -6.8125 6.703125 -7.203125 6.703125 -7.734375 C 6.703125 -8.265625 6.519531 -8.640625 6.15625 -8.859375 C 5.800781 -9.085938 5.242188 -9.203125 4.484375 -9.203125 L 3.765625 -9.203125 Z M 3.765625 -4.265625 L 3.765625 0 L 1.40625 0 L 1.40625 -11.125 L 4.640625 -11.125 C 6.148438 -11.125 7.269531 -10.847656 8 -10.296875 C 8.726562 -9.753906 9.09375 -8.921875 9.09375 -7.796875 C 9.09375 -7.140625 8.910156 -6.554688 8.546875 -6.046875 C 8.191406 -5.535156 7.679688 -5.132812 7.015625 -4.84375 C 8.691406 -2.34375 9.785156 -0.726562 10.296875 0 L 7.671875 0 L 5.015625 -4.265625 Z M 3.765625 -4.265625 "/></g></g></g><g fill="#608621" fill-opacity="1"><g transform="translate(104.342016, 368.468472)"><g><path d="M 8.21875 0 L 7.40625 -2.65625 L 3.34375 -2.65625 L 2.546875 0 L 0 0 L 3.921875 -11.171875 L 6.8125 -11.171875 L 10.765625 0 Z M 6.84375 -4.625 C 6.09375 -7.03125 5.671875 -8.390625 5.578125 -8.703125 C 5.484375 -9.015625 5.421875 -9.265625 5.390625 -9.453125 C 5.210938 -8.796875 4.726562 -7.1875 3.9375 -4.625 Z M 6.84375 -4.625 "/></g></g></g><g fill="#608621" fill-opacity="1"><g transform="translate(116.67909, 368.468472)"><g><path d="M 5.703125 0 L 3.328125 0 L 3.328125 -9.171875 L 0.3125 -9.171875 L 0.3125 -11.125 L 8.71875 -11.125 L 8.71875 -9.171875 L 5.703125 -9.171875 Z M 5.703125 0 "/></g></g></g><g fill="#608621" fill-opacity="1"><g transform="translate(127.287316, 368.468472)"><g><path d="M 1.40625 0 L 1.40625 -11.125 L 3.765625 -11.125 L 3.765625 0 Z M 1.40625 0 "/></g></g></g><g fill="#608621" fill-opacity="1"><g transform="translate(134.026592, 368.468472)"><g><path d="M 7.75 -11.125 L 10.140625 -11.125 L 6.34375 0 L 3.78125 0 L 0 -11.125 L 2.390625 -11.125 L 4.484375 -4.5 C 4.597656 -4.113281 4.71875 -3.660156 4.84375 -3.140625 C 4.96875 -2.617188 5.046875 -2.257812 5.078125 -2.0625 C 5.128906 -2.519531 5.316406 -3.332031 5.640625 -4.5 Z M 7.75 -11.125 "/></g></g></g><g fill="#608621" fill-opacity="1"><g transform="translate(145.73915, 368.468472)"><g><path d="M 7.8125 0 L 1.40625 0 L 1.40625 -11.125 L 7.8125 -11.125 L 7.8125 -9.203125 L 3.765625 -9.203125 L 3.765625 -6.75 L 7.53125 -6.75 L 7.53125 -4.8125 L 3.765625 -4.8125 L 3.765625 -1.953125 L 7.8125 -1.953125 Z M 7.8125 0 "/></g></g></g><g fill="#608621" fill-opacity="1"><g transform="translate(156.050356, 368.468472)"><g/></g></g><g fill="#608621" fill-opacity="1"><g transform="translate(161.677691, 368.468472)"><g><path d="M 6.125 -9.328125 C 5.238281 -9.328125 4.550781 -8.992188 4.0625 -8.328125 C 3.570312 -7.660156 3.328125 -6.726562 3.328125 -5.53125 C 3.328125 -3.050781 4.257812 -1.8125 6.125 -1.8125 C 6.90625 -1.8125 7.851562 -2.007812 8.96875 -2.40625 L 8.96875 -0.421875 C 8.050781 -0.0351562 7.03125 0.15625 5.90625 0.15625 C 4.289062 0.15625 3.050781 -0.332031 2.1875 -1.3125 C 1.332031 -2.300781 0.90625 -3.710938 0.90625 -5.546875 C 0.90625 -6.703125 1.113281 -7.710938 1.53125 -8.578125 C 1.957031 -9.453125 2.5625 -10.125 3.34375 -10.59375 C 4.132812 -11.0625 5.0625 -11.296875 6.125 -11.296875 C 7.207031 -11.296875 8.296875 -11.03125 9.390625 -10.5 L 8.625 -8.59375 C 8.207031 -8.789062 7.785156 -8.960938 7.359375 -9.109375 C 6.941406 -9.253906 6.53125 -9.328125 6.125 -9.328125 Z M 6.125 -9.328125 "/></g></g></g><g fill="#608621" fill-opacity="1"><g transform="translate(173.192232, 368.468472)"><g><path d="M 3.765625 -6.1875 L 4.515625 -6.1875 C 5.265625 -6.1875 5.816406 -6.3125 6.171875 -6.5625 C 6.523438 -6.8125 6.703125 -7.203125 6.703125 -7.734375 C 6.703125 -8.265625 6.519531 -8.640625 6.15625 -8.859375 C 5.800781 -9.085938 5.242188 -9.203125 4.484375 -9.203125 L 3.765625 -9.203125 Z M 3.765625 -4.265625 L 3.765625 0 L 1.40625 0 L 1.40625 -11.125 L 4.640625 -11.125 C 6.148438 -11.125 7.269531 -10.847656 8 -10.296875 C 8.726562 -9.753906 9.09375 -8.921875 9.09375 -7.796875 C 9.09375 -7.140625 8.910156 -6.554688 8.546875 -6.046875 C 8.191406 -5.535156 7.679688 -5.132812 7.015625 -4.84375 C 8.691406 -2.34375 9.785156 -0.726562 10.296875 0 L 7.671875 0 L 5.015625 -4.265625 Z M 3.765625 -4.265625 "/></g></g></g><g fill="#608621" fill-opacity="1"><g transform="translate(185.064721, 368.468472)"><g><path d="M 7.8125 0 L 1.40625 0 L 1.40625 -11.125 L 7.8125 -11.125 L 7.8125 -9.203125 L 3.765625 -9.203125 L 3.765625 -6.75 L 7.53125 -6.75 L 7.53125 -4.8125 L 3.765625 -4.8125 L 3.765625 -1.953125 L 7.8125 -1.953125 Z M 7.8125 0 "/></g></g></g><g fill="#608621" fill-opacity="1"><g transform="translate(195.375927, 368.468472)"><g><path d="M 10.640625 -5.671875 C 10.640625 -3.835938 10.113281 -2.429688 9.0625 -1.453125 C 8.019531 -0.484375 6.515625 0 4.546875 0 L 1.40625 0 L 1.40625 -11.125 L 4.890625 -11.125 C 6.710938 -11.125 8.125 -10.644531 9.125 -9.6875 C 10.132812 -8.726562 10.640625 -7.390625 10.640625 -5.671875 Z M 8.1875 -5.609375 C 8.1875 -8.003906 7.128906 -9.203125 5.015625 -9.203125 L 3.765625 -9.203125 L 3.765625 -1.953125 L 4.78125 -1.953125 C 7.050781 -1.953125 8.1875 -3.171875 8.1875 -5.609375 Z M 8.1875 -5.609375 "/></g></g></g><g fill="#608621" fill-opacity="1"><g transform="translate(208.497447, 368.468472)"><g><path d="M 1.40625 0 L 1.40625 -11.125 L 3.765625 -11.125 L 3.765625 0 Z M 1.40625 0 "/></g></g></g><g fill="#608621" fill-opacity="1"><g transform="translate(215.236723, 368.468472)"><g><path d="M 5.703125 0 L 3.328125 0 L 3.328125 -9.171875 L 0.3125 -9.171875 L 0.3125 -11.125 L 8.71875 -11.125 L 8.71875 -9.171875 L 5.703125 -9.171875 Z M 5.703125 0 "/></g></g></g><g fill="#608621" fill-opacity="1"><g transform="translate(225.844949, 368.468472)"><g/></g></g><g fill="#608621" fill-opacity="1"><g transform="translate(231.472283, 368.468472)"><g><path d="M 7.96875 -3.09375 C 7.96875 -2.082031 7.601562 -1.285156 6.875 -0.703125 C 6.15625 -0.128906 5.15625 0.15625 3.875 0.15625 C 2.6875 0.15625 1.632812 -0.0664062 0.71875 -0.515625 L 0.71875 -2.703125 C 1.46875 -2.367188 2.101562 -2.132812 2.625 -2 C 3.144531 -1.863281 3.617188 -1.796875 4.046875 -1.796875 C 4.566406 -1.796875 4.960938 -1.894531 5.234375 -2.09375 C 5.515625 -2.289062 5.65625 -2.585938 5.65625 -2.984375 C 5.65625 -3.191406 5.59375 -3.378906 5.46875 -3.546875 C 5.351562 -3.722656 5.175781 -3.890625 4.9375 -4.046875 C 4.695312 -4.203125 4.21875 -4.453125 3.5 -4.796875 C 2.8125 -5.117188 2.296875 -5.425781 1.953125 -5.71875 C 1.617188 -6.019531 1.347656 -6.363281 1.140625 -6.75 C 0.941406 -7.144531 0.84375 -7.601562 0.84375 -8.125 C 0.84375 -9.101562 1.175781 -9.875 1.84375 -10.4375 C 2.507812 -11.007812 3.429688 -11.296875 4.609375 -11.296875 C 5.191406 -11.296875 5.742188 -11.222656 6.265625 -11.078125 C 6.796875 -10.941406 7.347656 -10.75 7.921875 -10.5 L 7.15625 -8.671875 C 6.5625 -8.910156 6.066406 -9.078125 5.671875 -9.171875 C 5.285156 -9.273438 4.90625 -9.328125 4.53125 -9.328125 C 4.09375 -9.328125 3.753906 -9.222656 3.515625 -9.015625 C 3.273438 -8.804688 3.15625 -8.535156 3.15625 -8.203125 C 3.15625 -7.992188 3.203125 -7.8125 3.296875 -7.65625 C 3.390625 -7.5 3.539062 -7.347656 3.75 -7.203125 C 3.96875 -7.054688 4.46875 -6.796875 5.25 -6.421875 C 6.289062 -5.929688 7.003906 -5.4375 7.390625 -4.9375 C 7.773438 -4.4375 7.96875 -3.820312 7.96875 -3.09375 Z M 7.96875 -3.09375 "/></g></g></g><g fill="#608621" fill-opacity="1"><g transform="translate(241.638779, 368.468472)"><g><path d="M 11.5 -5.578125 C 11.5 -3.734375 11.039062 -2.316406 10.125 -1.328125 C 9.21875 -0.335938 7.910156 0.15625 6.203125 0.15625 C 4.492188 0.15625 3.179688 -0.335938 2.265625 -1.328125 C 1.359375 -2.316406 0.90625 -3.738281 0.90625 -5.59375 C 0.90625 -7.445312 1.363281 -8.863281 2.28125 -9.84375 C 3.195312 -10.820312 4.507812 -11.3125 6.21875 -11.3125 C 7.925781 -11.3125 9.234375 -10.816406 10.140625 -9.828125 C 11.046875 -8.847656 11.5 -7.429688 11.5 -5.578125 Z M 3.375 -5.578125 C 3.375 -4.335938 3.609375 -3.398438 4.078125 -2.765625 C 4.554688 -2.140625 5.265625 -1.828125 6.203125 -1.828125 C 8.085938 -1.828125 9.03125 -3.078125 9.03125 -5.578125 C 9.03125 -8.085938 8.09375 -9.34375 6.21875 -9.34375 C 5.28125 -9.34375 4.570312 -9.023438 4.09375 -8.390625 C 3.613281 -7.765625 3.375 -6.828125 3.375 -5.578125 Z M 3.375 -5.578125 "/></g></g></g><g fill="#608621" fill-opacity="1"><g transform="translate(255.628539, 368.468472)"><g><path d="M 6.125 -9.328125 C 5.238281 -9.328125 4.550781 -8.992188 4.0625 -8.328125 C 3.570312 -7.660156 3.328125 -6.726562 3.328125 -5.53125 C 3.328125 -3.050781 4.257812 -1.8125 6.125 -1.8125 C 6.90625 -1.8125 7.851562 -2.007812 8.96875 -2.40625 L 8.96875 -0.421875 C 8.050781 -0.0351562 7.03125 0.15625 5.90625 0.15625 C 4.289062 0.15625 3.050781 -0.332031 2.1875 -1.3125 C 1.332031 -2.300781 0.90625 -3.710938 0.90625 -5.546875 C 0.90625 -6.703125 1.113281 -7.710938 1.53125 -8.578125 C 1.957031 -9.453125 2.5625 -10.125 3.34375 -10.59375 C 4.132812 -11.0625 5.0625 -11.296875 6.125 -11.296875 C 7.207031 -11.296875 8.296875 -11.03125 9.390625 -10.5 L 8.625 -8.59375 C 8.207031 -8.789062 7.785156 -8.960938 7.359375 -9.109375 C 6.941406 -9.253906 6.53125 -9.328125 6.125 -9.328125 Z M 6.125 -9.328125 "/></g></g></g><g fill="#608621" fill-opacity="1"><g transform="translate(267.14308, 368.468472)"><g><path d="M 1.40625 0 L 1.40625 -11.125 L 3.765625 -11.125 L 3.765625 0 Z M 1.40625 0 "/></g></g></g><g fill="#608621" fill-opacity="1"><g transform="translate(273.882368, 368.468472)"><g><path d="M 7.8125 0 L 1.40625 0 L 1.40625 -11.125 L 7.8125 -11.125 L 7.8125 -9.203125 L 3.765625 -9.203125 L 3.765625 -6.75 L 7.53125 -6.75 L 7.53125 -4.8125 L 3.765625 -4.8125 L 3.765625 -1.953125 L 7.8125 -1.953125 Z M 7.8125 0 "/></g></g></g><g fill="#608621" fill-opacity="1"><g transform="translate(284.193586, 368.468472)"><g><path d="M 5.703125 0 L 3.328125 0 L 3.328125 -9.171875 L 0.3125 -9.171875 L 0.3125 -11.125 L 8.71875 -11.125 L 8.71875 -9.171875 L 5.703125 -9.171875 Z M 5.703125 0 "/></g></g></g><g fill="#608621" fill-opacity="1"><g transform="translate(294.8018, 368.468472)"><g><path d="M 4.859375 -6.546875 L 7.1875 -11.125 L 9.734375 -11.125 L 6.03125 -4.328125 L 6.03125 0 L 3.6875 0 L 3.6875 -4.25 L 0 -11.125 L 2.5625 -11.125 Z M 4.859375 -6.546875 "/></g></g></g><g fill="#608621" fill-opacity="1"><g transform="translate(306.110714, 368.468472)"><g/></g></g><g fill="#608621" fill-opacity="1"><g transform="translate(311.738048, 368.468472)"><g><path d="M 1.40625 0 L 1.40625 -11.125 L 3.765625 -11.125 L 3.765625 -1.953125 L 8.28125 -1.953125 L 8.28125 0 Z M 1.40625 0 "/></g></g></g><g fill="#608621" fill-opacity="1"><g transform="translate(322.125415, 368.468472)"><g><path d="M 5.703125 0 L 3.328125 0 L 3.328125 -9.171875 L 0.3125 -9.171875 L 0.3125 -11.125 L 8.71875 -11.125 L 8.71875 -9.171875 L 5.703125 -9.171875 Z M 5.703125 0 "/></g></g></g><g fill="#608621" fill-opacity="1"><g transform="translate(332.733652, 368.468472)"><g><path d="M 10.640625 -5.671875 C 10.640625 -3.835938 10.113281 -2.429688 9.0625 -1.453125 C 8.019531 -0.484375 6.515625 0 4.546875 0 L 1.40625 0 L 1.40625 -11.125 L 4.890625 -11.125 C 6.710938 -11.125 8.125 -10.644531 9.125 -9.6875 C 10.132812 -8.726562 10.640625 -7.390625 10.640625 -5.671875 Z M 8.1875 -5.609375 C 8.1875 -8.003906 7.128906 -9.203125 5.015625 -9.203125 L 3.765625 -9.203125 L 3.765625 -1.953125 L 4.78125 -1.953125 C 7.050781 -1.953125 8.1875 -3.171875 8.1875 -5.609375 Z M 8.1875 -5.609375 "/></g></g></g><g fill="#608621" fill-opacity="1"><g transform="translate(345.855172, 368.468472)"><g><path d="M 0.890625 -1.09375 C 0.890625 -1.519531 1.003906 -1.84375 1.234375 -2.0625 C 1.460938 -2.28125 1.796875 -2.390625 2.234375 -2.390625 C 2.648438 -2.390625 2.972656 -2.273438 3.203125 -2.046875 C 3.441406 -1.828125 3.5625 -1.507812 3.5625 -1.09375 C 3.5625 -0.6875 3.441406 -0.367188 3.203125 -0.140625 C 2.972656 0.0859375 2.648438 0.203125 2.234375 0.203125 C 1.804688 0.203125 1.472656 0.09375 1.234375 -0.125 C 1.003906 -0.351562 0.890625 -0.675781 0.890625 -1.09375 Z M 0.890625 -1.09375 "/></g></g></g></svg>