<svg xmlns="http://www.w3.org/2000/svg" xmlns:xlink="http://www.w3.org/1999/xlink" width="500" zoomAndPan="magnify" viewBox="0 0 375 374.999991" height="500" preserveAspectRatio="xMidYMid meet" version="1.0"><defs><g/><clipPath id="id1"><path d="M 146 135 L 349.003906 135 L 349.003906 317.25 L 146 317.25 Z M 146 135 " clip-rule="nonzero"/></clipPath><clipPath id="id2"><path d="M 25.753906 0 L 300 0 L 300 317.25 L 25.753906 317.25 Z M 25.753906 0 " clip-rule="nonzero"/></clipPath></defs><g clip-path="url(#id1)"><path fill="#a4c639" d="M 244.492188 135.5 L 230.964844 158.847656 L 309.082031 293.882812 L 258.46875 293.882812 L 209.472656 208.910156 L 146.304688 317.253906 L 173.394531 317.253906 L 209.359375 255.570312 L 244.929688 317.253906 L 349.636719 317.253906 L 244.492188 135.5 " fill-opacity="1" fill-rule="nonzero"/></g><g clip-path="url(#id2)"><path fill="#608621" d="M 299.734375 72.613281 L 298.519531 -0.00390625 L 236.113281 37.355469 L 258.367188 49.6875 L 116.855469 293.882812 L 66.222656 293.882812 L 187.652344 83.980469 L 208.652344 120.28125 L 222.179688 96.929688 L 187.652344 37.238281 L 25.667969 317.253906 L 130.359375 317.253906 L 134.769531 309.648438 L 278.839844 61.03125 L 299.734375 72.613281 " fill-opacity="1" fill-rule="nonzero"/></g><g fill="#608621" fill-opacity="1"><g transform="translate(23.934672, 347.194889)"><g><path d="M 5.015625 0 L 5.015625 -22.21875 L 0.453125 -22.21875 L 0.453125 -24.71875 L 12.328125 -24.71875 L 12.328125 -22.21875 L 7.765625 -22.21875 L 7.765625 0 Z M 5.015625 0 "/></g></g></g><g fill="#608621" fill-opacity="1"><g transform="translate(40.91944, 347.194889)"><g><path d="M 4.171875 -11.125 L 4.171875 0 L 1.40625 0 L 1.40625 -24.71875 L 4.171875 -24.71875 L 4.171875 -13.59375 L 10.234375 -13.59375 L 10.234375 -24.71875 L 13 -24.71875 L 13 0 L 10.234375 0 L 10.234375 -11.125 Z M 4.171875 -11.125 "/></g></g></g><g fill="#608621" fill-opacity="1"><g transform="translate(59.493085, 347.194889)"><g><path d="M 10.203125 -13.765625 L 10.203125 -11.296875 L 4.171875 -11.296875 L 4.171875 -2.5 L 11.578125 -2.5 L 11.578125 0 L 1.40625 0 L 1.40625 -24.71875 L 11.578125 -24.71875 L 11.578125 -22.21875 L 4.171875 -22.21875 L 4.171875 -13.765625 Z M 10.203125 -13.765625 "/></g></g></g><g fill="#608621" fill-opacity="1"><g transform="translate(76.371922, 347.194889)"><g/></g></g><g fill="#608621" fill-opacity="1"><g transform="translate(86.012531, 347.194889)"><g><path d="M 4.203125 -4.984375 L 3.25 0 L 0.703125 0 L 5.4375 -24.71875 L 9.421875 -24.71875 L 14.15625 0 L 11.40625 0 L 10.453125 -4.984375 Z M 4.5625 -7.34375 L 10.0625 -7.34375 L 7.28125 -21.609375 Z M 4.5625 -7.34375 "/></g></g></g><g fill="#608621" fill-opacity="1"><g transform="translate(105.080493, 347.194889)"><g><path d="M 6.8125 -24.71875 C 8.769531 -24.71875 10.179688 -24.179688 11.046875 -23.109375 C 11.921875 -22.035156 12.359375 -20.5625 12.359375 -18.6875 L 12.359375 -15.71875 C 12.359375 -13.738281 11.890625 -12.25 10.953125 -11.25 C 10.023438 -10.25 8.578125 -9.75 6.609375 -9.75 L 4.171875 -9.75 L 4.171875 0 L 1.40625 0 L 1.40625 -24.71875 Z M 6.609375 -12.21875 C 7.640625 -12.21875 8.398438 -12.46875 8.890625 -12.96875 C 9.390625 -13.476562 9.640625 -14.332031 9.640625 -15.53125 L 9.640625 -18.828125 C 9.640625 -19.953125 9.421875 -20.796875 8.984375 -21.359375 C 8.546875 -21.929688 7.820312 -22.21875 6.8125 -22.21875 L 4.171875 -22.21875 L 4.171875 -12.21875 Z M 6.609375 -12.21875 "/></g></g></g><g fill="#608621" fill-opacity="1"><g transform="translate(122.347724, 347.194889)"><g><path d="M 10.203125 -13.765625 L 10.203125 -11.296875 L 4.171875 -11.296875 L 4.171875 -2.5 L 11.578125 -2.5 L 11.578125 0 L 1.40625 0 L 1.40625 -24.71875 L 11.578125 -24.71875 L 11.578125 -22.21875 L 4.171875 -22.21875 L 4.171875 -13.765625 Z M 10.203125 -13.765625 "/></g></g></g><g fill="#608621" fill-opacity="1"><g transform="translate(139.226558, 347.194889)"><g><path d="M 7.5625 -10.671875 L 3.421875 0 L 0.8125 0 L 5.796875 -12.75 L 1.125 -24.71875 L 3.984375 -24.71875 L 7.796875 -14.828125 L 11.65625 -24.71875 L 14.234375 -24.71875 L 9.609375 -12.75 L 14.546875 0 L 11.65625 0 Z M 7.5625 -10.671875 "/></g></g></g><g fill="#608621" fill-opacity="1"><g transform="translate(158.753534, 347.194889)"><g/></g></g><g fill="#608621" fill-opacity="1"><g transform="translate(168.39415, 347.194889)"><g><path d="M 6.953125 -24.71875 C 8.890625 -24.71875 10.269531 -24.265625 11.09375 -23.359375 C 11.914062 -22.453125 12.328125 -21.082031 12.328125 -19.25 L 12.328125 -18.078125 C 12.328125 -16.765625 12.113281 -15.703125 11.6875 -14.890625 C 11.257812 -14.078125 10.503906 -13.503906 9.421875 -13.171875 C 10.628906 -12.835938 11.484375 -12.210938 11.984375 -11.296875 C 12.492188 -10.378906 12.75 -9.238281 12.75 -7.875 L 12.75 -5.796875 C 12.75 -3.929688 12.289062 -2.5 11.375 -1.5 C 10.457031 -0.5 9.03125 0 7.09375 0 L 1.40625 0 L 1.40625 -24.71875 Z M 6.28125 -14.234375 C 7.382812 -14.234375 8.210938 -14.457031 8.765625 -14.90625 C 9.328125 -15.351562 9.609375 -16.222656 9.609375 -17.515625 L 9.609375 -18.96875 C 9.609375 -20.070312 9.398438 -20.890625 8.984375 -21.421875 C 8.578125 -21.953125 7.878906 -22.21875 6.890625 -22.21875 L 4.171875 -22.21875 L 4.171875 -14.234375 Z M 7.09375 -2.5 C 9.050781 -2.5 10.03125 -3.617188 10.03125 -5.859375 L 10.03125 -8.046875 C 10.03125 -9.441406 9.753906 -10.398438 9.203125 -10.921875 C 8.648438 -11.453125 7.769531 -11.71875 6.5625 -11.71875 L 4.171875 -11.71875 L 4.171875 -2.5 Z M 7.09375 -2.5 "/></g></g></g><g fill="#608621" fill-opacity="1"><g transform="translate(186.402859, 347.194889)"><g><path d="M 4.203125 -4.984375 L 3.25 0 L 0.703125 0 L 5.4375 -24.71875 L 9.421875 -24.71875 L 14.15625 0 L 11.40625 0 L 10.453125 -4.984375 Z M 4.5625 -7.34375 L 10.0625 -7.34375 L 7.28125 -21.609375 Z M 4.5625 -7.34375 "/></g></g></g><g fill="#608621" fill-opacity="1"><g transform="translate(205.470827, 347.194889)"><g><path d="M 3.84375 0 L 1.375 0 L 1.375 -24.71875 L 4.875 -24.71875 L 10.59375 -6.84375 L 10.59375 -24.71875 L 13.03125 -24.71875 L 13.03125 0 L 10.171875 0 L 3.84375 -19.984375 Z M 3.84375 0 "/></g></g></g><g fill="#608621" fill-opacity="1"><g transform="translate(224.079788, 347.194889)"><g><path d="M 5.609375 -10.734375 L 4.171875 -8.296875 L 4.171875 0 L 1.40625 0 L 1.40625 -24.71875 L 4.171875 -24.71875 L 4.171875 -12.78125 L 10.734375 -24.71875 L 13.53125 -24.71875 L 7.28125 -13.453125 L 13.734375 0 L 10.90625 0 Z M 5.609375 -10.734375 "/></g></g></g><g fill="#608621" fill-opacity="1"><g transform="translate(242.688749, 347.194889)"><g/></g></g><g fill="#608621" fill-opacity="1"><g transform="translate(252.329352, 347.194889)"><g><path d="M 6.609375 -24.96875 C 8.484375 -24.96875 9.867188 -24.40625 10.765625 -23.28125 C 11.660156 -22.164062 12.109375 -20.664062 12.109375 -18.78125 L 12.109375 -18.109375 L 9.5 -18.109375 L 9.5 -18.921875 C 9.5 -20.054688 9.273438 -20.925781 8.828125 -21.53125 C 8.378906 -22.144531 7.660156 -22.453125 6.671875 -22.453125 C 5.679688 -22.453125 4.960938 -22.144531 4.515625 -21.53125 C 4.066406 -20.925781 3.84375 -20.070312 3.84375 -18.96875 C 3.84375 -18.039062 4.046875 -17.234375 4.453125 -16.546875 C 4.867188 -15.867188 5.382812 -15.242188 6 -14.671875 C 6.613281 -14.097656 7.28125 -13.53125 8 -12.96875 C 8.71875 -12.414062 9.378906 -11.8125 9.984375 -11.15625 C 10.597656 -10.5 11.109375 -9.75 11.515625 -8.90625 C 11.929688 -8.070312 12.140625 -7.082031 12.140625 -5.9375 C 12.140625 -4.050781 11.6875 -2.546875 10.78125 -1.421875 C 9.875 -0.304688 8.46875 0.25 6.5625 0.25 C 4.65625 0.25 3.253906 -0.304688 2.359375 -1.421875 C 1.472656 -2.546875 1.03125 -4.050781 1.03125 -5.9375 L 1.03125 -7.34375 L 3.609375 -7.34375 L 3.609375 -5.796875 C 3.609375 -4.660156 3.84375 -3.785156 4.3125 -3.171875 C 4.78125 -2.566406 5.507812 -2.265625 6.5 -2.265625 C 7.488281 -2.265625 8.21875 -2.566406 8.6875 -3.171875 C 9.15625 -3.785156 9.390625 -4.660156 9.390625 -5.796875 C 9.390625 -6.710938 9.179688 -7.503906 8.765625 -8.171875 C 8.359375 -8.847656 7.847656 -9.472656 7.234375 -10.046875 C 6.628906 -10.617188 5.972656 -11.179688 5.265625 -11.734375 C 4.554688 -12.296875 3.894531 -12.90625 3.28125 -13.5625 C 2.664062 -14.21875 2.148438 -14.960938 1.734375 -15.796875 C 1.328125 -16.640625 1.125 -17.632812 1.125 -18.78125 C 1.125 -20.6875 1.570312 -22.191406 2.46875 -23.296875 C 3.363281 -24.410156 4.742188 -24.96875 6.609375 -24.96875 Z M 6.609375 -24.96875 "/></g></g></g><g fill="#608621" fill-opacity="1"><g transform="translate(269.631888, 347.194889)"><g><path d="M 4.984375 0 L 4.984375 -22.21875 L 0.421875 -22.21875 L 0.421875 -24.71875 L 12.25 -24.71875 L 12.25 -22.21875 L 7.703125 -22.21875 L 7.703125 0 Z M 4.984375 0 "/></g></g></g><g fill="#608621" fill-opacity="1"><g transform="translate(286.510716, 347.194889)"><g><path d="M 4.203125 -4.984375 L 3.25 0 L 0.703125 0 L 5.4375 -24.71875 L 9.421875 -24.71875 L 14.15625 0 L 11.40625 0 L 10.453125 -4.984375 Z M 4.5625 -7.34375 L 10.0625 -7.34375 L 7.28125 -21.609375 Z M 4.5625 -7.34375 "/></g></g></g><g fill="#608621" fill-opacity="1"><g transform="translate(305.578684, 347.194889)"><g><path d="M 9.859375 -13.203125 L 9.859375 -10.703125 L 4.171875 -10.703125 L 4.171875 0 L 1.40625 0 L 1.40625 -24.71875 L 11.234375 -24.71875 L 11.234375 -22.21875 L 4.171875 -22.21875 L 4.171875 -13.203125 Z M 9.859375 -13.203125 "/></g></g></g><g fill="#608621" fill-opacity="1"><g transform="translate(321.751364, 347.194889)"><g><path d="M 9.859375 -13.203125 L 9.859375 -10.703125 L 4.171875 -10.703125 L 4.171875 0 L 1.40625 0 L 1.40625 -24.71875 L 11.234375 -24.71875 L 11.234375 -22.21875 L 4.171875 -22.21875 L 4.171875 -13.203125 Z M 9.859375 -13.203125 "/></g></g></g><g fill="#608621" fill-opacity="1"><g transform="translate(337.924043, 347.194889)"><g><path d="M 6.609375 -24.96875 C 8.484375 -24.96875 9.867188 -24.40625 10.765625 -23.28125 C 11.660156 -22.164062 12.109375 -20.664062 12.109375 -18.78125 L 12.109375 -18.109375 L 9.5 -18.109375 L 9.5 -18.921875 C 9.5 -20.054688 9.273438 -20.925781 8.828125 -21.53125 C 8.378906 -22.144531 7.660156 -22.453125 6.671875 -22.453125 C 5.679688 -22.453125 4.960938 -22.144531 4.515625 -21.53125 C 4.066406 -20.925781 3.84375 -20.070312 3.84375 -18.96875 C 3.84375 -18.039062 4.046875 -17.234375 4.453125 -16.546875 C 4.867188 -15.867188 5.382812 -15.242188 6 -14.671875 C 6.613281 -14.097656 7.28125 -13.53125 8 -12.96875 C 8.71875 -12.414062 9.378906 -11.8125 9.984375 -11.15625 C 10.597656 -10.5 11.109375 -9.75 11.515625 -8.90625 C 11.929688 -8.070312 12.140625 -7.082031 12.140625 -5.9375 C 12.140625 -4.050781 11.6875 -2.546875 10.78125 -1.421875 C 9.875 -0.304688 8.46875 0.25 6.5625 0.25 C 4.65625 0.25 3.253906 -0.304688 2.359375 -1.421875 C 1.472656 -2.546875 1.03125 -4.050781 1.03125 -5.9375 L 1.03125 -7.34375 L 3.609375 -7.34375 L 3.609375 -5.796875 C 3.609375 -4.660156 3.84375 -3.785156 4.3125 -3.171875 C 4.78125 -2.566406 5.507812 -2.265625 6.5 -2.265625 C 7.488281 -2.265625 8.21875 -2.566406 8.6875 -3.171875 C 9.15625 -3.785156 9.390625 -4.660156 9.390625 -5.796875 C 9.390625 -6.710938 9.179688 -7.503906 8.765625 -8.171875 C 8.359375 -8.847656 7.847656 -9.472656 7.234375 -10.046875 C 6.628906 -10.617188 5.972656 -11.179688 5.265625 -11.734375 C 4.554688 -12.296875 3.894531 -12.90625 3.28125 -13.5625 C 2.664062 -14.21875 2.148438 -14.960938 1.734375 -15.796875 C 1.328125 -16.640625 1.125 -17.632812 1.125 -18.78125 C 1.125 -20.6875 1.570312 -22.191406 2.46875 -23.296875 C 3.363281 -24.410156 4.742188 -24.96875 6.609375 -24.96875 Z M 6.609375 -24.96875 "/></g></g></g><g fill="#608621" fill-opacity="1"><g transform="translate(23.248943, 370.972118)"><g><path d="M 7.234375 -11.015625 C 6.179688 -11.015625 5.367188 -10.617188 4.796875 -9.828125 C 4.222656 -9.035156 3.9375 -7.9375 3.9375 -6.53125 C 3.9375 -3.601562 5.035156 -2.140625 7.234375 -2.140625 C 8.160156 -2.140625 9.28125 -2.367188 10.59375 -2.828125 L 10.59375 -0.5 C 9.507812 -0.0390625 8.300781 0.1875 6.96875 0.1875 C 5.0625 0.1875 3.597656 -0.390625 2.578125 -1.546875 C 1.566406 -2.710938 1.0625 -4.378906 1.0625 -6.546875 C 1.0625 -7.910156 1.3125 -9.109375 1.8125 -10.140625 C 2.3125 -11.171875 3.023438 -11.957031 3.953125 -12.5 C 4.890625 -13.050781 5.984375 -13.328125 7.234375 -13.328125 C 8.515625 -13.328125 9.796875 -13.019531 11.078125 -12.40625 L 10.1875 -10.140625 C 9.695312 -10.367188 9.203125 -10.570312 8.703125 -10.75 C 8.203125 -10.925781 7.710938 -11.015625 7.234375 -11.015625 Z M 7.234375 -11.015625 "/></g></g></g><g fill="#608621" fill-opacity="1"><g transform="translate(36.838164, 370.972118)"><g><path d="M 13.578125 -6.59375 C 13.578125 -4.414062 13.035156 -2.738281 11.953125 -1.5625 C 10.878906 -0.394531 9.335938 0.1875 7.328125 0.1875 C 5.316406 0.1875 3.769531 -0.394531 2.6875 -1.5625 C 1.601562 -2.738281 1.0625 -4.421875 1.0625 -6.609375 C 1.0625 -8.796875 1.601562 -10.460938 2.6875 -11.609375 C 3.769531 -12.765625 5.320312 -13.34375 7.34375 -13.34375 C 9.363281 -13.34375 10.90625 -12.757812 11.96875 -11.59375 C 13.039062 -10.4375 13.578125 -8.769531 13.578125 -6.59375 Z M 3.984375 -6.59375 C 3.984375 -5.125 4.257812 -4.015625 4.8125 -3.265625 C 5.375 -2.523438 6.210938 -2.15625 7.328125 -2.15625 C 9.546875 -2.15625 10.65625 -3.632812 10.65625 -6.59375 C 10.65625 -9.550781 9.550781 -11.03125 7.34375 -11.03125 C 6.238281 -11.03125 5.398438 -10.65625 4.828125 -9.90625 C 4.265625 -9.164062 3.984375 -8.0625 3.984375 -6.59375 Z M 3.984375 -6.59375 "/></g></g></g><g fill="#608621" fill-opacity="1"><g transform="translate(53.348465, 370.972118)"><g><path d="M 0.546875 -3.8125 L 0.546875 -6.0625 L 5.375 -6.0625 L 5.375 -3.8125 Z M 0.546875 -3.8125 "/></g></g></g><g fill="#608621" fill-opacity="1"><g transform="translate(61.131465, 370.972118)"><g><path d="M 13.578125 -6.59375 C 13.578125 -4.414062 13.035156 -2.738281 11.953125 -1.5625 C 10.878906 -0.394531 9.335938 0.1875 7.328125 0.1875 C 5.316406 0.1875 3.769531 -0.394531 2.6875 -1.5625 C 1.601562 -2.738281 1.0625 -4.421875 1.0625 -6.609375 C 1.0625 -8.796875 1.601562 -10.460938 2.6875 -11.609375 C 3.769531 -12.765625 5.320312 -13.34375 7.34375 -13.34375 C 9.363281 -13.34375 10.90625 -12.757812 11.96875 -11.59375 C 13.039062 -10.4375 13.578125 -8.769531 13.578125 -6.59375 Z M 3.984375 -6.59375 C 3.984375 -5.125 4.257812 -4.015625 4.8125 -3.265625 C 5.375 -2.523438 6.210938 -2.15625 7.328125 -2.15625 C 9.546875 -2.15625 10.65625 -3.632812 10.65625 -6.59375 C 10.65625 -9.550781 9.550781 -11.03125 7.34375 -11.03125 C 6.238281 -11.03125 5.398438 -10.65625 4.828125 -9.90625 C 4.265625 -9.164062 3.984375 -8.0625 3.984375 -6.59375 Z M 3.984375 -6.59375 "/></g></g></g><g fill="#608621" fill-opacity="1"><g transform="translate(77.641766, 370.972118)"><g><path d="M 4.4375 -6.953125 L 5.359375 -6.953125 C 6.210938 -6.953125 6.851562 -7.117188 7.28125 -7.453125 C 7.707031 -7.796875 7.921875 -8.289062 7.921875 -8.9375 C 7.921875 -9.59375 7.738281 -10.078125 7.375 -10.390625 C 7.019531 -10.703125 6.460938 -10.859375 5.703125 -10.859375 L 4.4375 -10.859375 Z M 10.734375 -9.046875 C 10.734375 -7.628906 10.289062 -6.546875 9.40625 -5.796875 C 8.519531 -5.046875 7.265625 -4.671875 5.640625 -4.671875 L 4.4375 -4.671875 L 4.4375 0 L 1.65625 0 L 1.65625 -13.140625 L 5.84375 -13.140625 C 7.4375 -13.140625 8.648438 -12.796875 9.484375 -12.109375 C 10.316406 -11.421875 10.734375 -10.398438 10.734375 -9.046875 Z M 10.734375 -9.046875 "/></g></g></g><g fill="#608621" fill-opacity="1"><g transform="translate(91.060208, 370.972118)"><g><path d="M 9.21875 0 L 1.65625 0 L 1.65625 -13.140625 L 9.21875 -13.140625 L 9.21875 -10.859375 L 4.4375 -10.859375 L 4.4375 -7.96875 L 8.890625 -7.96875 L 8.890625 -5.6875 L 4.4375 -5.6875 L 4.4375 -2.296875 L 9.21875 -2.296875 Z M 9.21875 0 "/></g></g></g><g fill="#608621" fill-opacity="1"><g transform="translate(103.229329, 370.972118)"><g><path d="M 4.4375 -7.3125 L 5.34375 -7.3125 C 6.21875 -7.3125 6.863281 -7.457031 7.28125 -7.75 C 7.707031 -8.039062 7.921875 -8.5 7.921875 -9.125 C 7.921875 -9.75 7.703125 -10.191406 7.265625 -10.453125 C 6.835938 -10.722656 6.175781 -10.859375 5.28125 -10.859375 L 4.4375 -10.859375 Z M 4.4375 -5.046875 L 4.4375 0 L 1.65625 0 L 1.65625 -13.140625 L 5.484375 -13.140625 C 7.265625 -13.140625 8.582031 -12.8125 9.4375 -12.15625 C 10.300781 -11.507812 10.734375 -10.523438 10.734375 -9.203125 C 10.734375 -8.429688 10.519531 -7.742188 10.09375 -7.140625 C 9.664062 -6.535156 9.0625 -6.0625 8.28125 -5.71875 C 10.257812 -2.769531 11.550781 -0.863281 12.15625 0 L 9.0625 0 L 5.921875 -5.046875 Z M 4.4375 -5.046875 "/></g></g></g><g fill="#608621" fill-opacity="1"><g transform="translate(117.240977, 370.972118)"><g><path d="M 9.703125 0 L 8.75 -3.125 L 3.953125 -3.125 L 3 0 L 0 0 L 4.640625 -13.1875 L 8.046875 -13.1875 L 12.703125 0 Z M 8.078125 -5.46875 C 7.203125 -8.300781 6.707031 -9.898438 6.59375 -10.265625 C 6.476562 -10.640625 6.398438 -10.9375 6.359375 -11.15625 C 6.160156 -10.382812 5.59375 -8.488281 4.65625 -5.46875 Z M 8.078125 -5.46875 "/></g></g></g><g fill="#608621" fill-opacity="1"><g transform="translate(131.800902, 370.972118)"><g><path d="M 6.71875 0 L 3.9375 0 L 3.9375 -10.828125 L 0.375 -10.828125 L 0.375 -13.140625 L 10.296875 -13.140625 L 10.296875 -10.828125 L 6.71875 -10.828125 Z M 6.71875 0 "/></g></g></g><g fill="#608621" fill-opacity="1"><g transform="translate(144.320548, 370.972118)"><g><path d="M 1.65625 0 L 1.65625 -13.140625 L 4.4375 -13.140625 L 4.4375 0 Z M 1.65625 0 "/></g></g></g><g fill="#608621" fill-opacity="1"><g transform="translate(152.27431, 370.972118)"><g><path d="M 9.15625 -13.140625 L 11.96875 -13.140625 L 7.5 0 L 4.453125 0 L 0 -13.140625 L 2.8125 -13.140625 L 5.28125 -5.328125 C 5.414062 -4.859375 5.554688 -4.316406 5.703125 -3.703125 C 5.859375 -3.085938 5.953125 -2.660156 5.984375 -2.421875 C 6.046875 -2.972656 6.269531 -3.941406 6.65625 -5.328125 Z M 9.15625 -13.140625 "/></g></g></g><g fill="#608621" fill-opacity="1"><g transform="translate(166.097217, 370.972118)"><g><path d="M 9.21875 0 L 1.65625 0 L 1.65625 -13.140625 L 9.21875 -13.140625 L 9.21875 -10.859375 L 4.4375 -10.859375 L 4.4375 -7.96875 L 8.890625 -7.96875 L 8.890625 -5.6875 L 4.4375 -5.6875 L 4.4375 -2.296875 L 9.21875 -2.296875 Z M 9.21875 0 "/></g></g></g><g fill="#608621" fill-opacity="1"><g transform="translate(178.266338, 370.972118)"><g/></g></g><g fill="#608621" fill-opacity="1"><g transform="translate(184.907859, 370.972118)"><g><path d="M 7.234375 -11.015625 C 6.179688 -11.015625 5.367188 -10.617188 4.796875 -9.828125 C 4.222656 -9.035156 3.9375 -7.9375 3.9375 -6.53125 C 3.9375 -3.601562 5.035156 -2.140625 7.234375 -2.140625 C 8.160156 -2.140625 9.28125 -2.367188 10.59375 -2.828125 L 10.59375 -0.5 C 9.507812 -0.0390625 8.300781 0.1875 6.96875 0.1875 C 5.0625 0.1875 3.597656 -0.390625 2.578125 -1.546875 C 1.566406 -2.710938 1.0625 -4.378906 1.0625 -6.546875 C 1.0625 -7.910156 1.3125 -9.109375 1.8125 -10.140625 C 2.3125 -11.171875 3.023438 -11.957031 3.953125 -12.5 C 4.890625 -13.050781 5.984375 -13.328125 7.234375 -13.328125 C 8.515625 -13.328125 9.796875 -13.019531 11.078125 -12.40625 L 10.1875 -10.140625 C 9.695312 -10.367188 9.203125 -10.570312 8.703125 -10.75 C 8.203125 -10.925781 7.710938 -11.015625 7.234375 -11.015625 Z M 7.234375 -11.015625 "/></g></g></g><g fill="#608621" fill-opacity="1"><g transform="translate(198.497078, 370.972118)"><g><path d="M 4.4375 -7.3125 L 5.34375 -7.3125 C 6.21875 -7.3125 6.863281 -7.457031 7.28125 -7.75 C 7.707031 -8.039062 7.921875 -8.5 7.921875 -9.125 C 7.921875 -9.75 7.703125 -10.191406 7.265625 -10.453125 C 6.835938 -10.722656 6.175781 -10.859375 5.28125 -10.859375 L 4.4375 -10.859375 Z M 4.4375 -5.046875 L 4.4375 0 L 1.65625 0 L 1.65625 -13.140625 L 5.484375 -13.140625 C 7.265625 -13.140625 8.582031 -12.8125 9.4375 -12.15625 C 10.300781 -11.507812 10.734375 -10.523438 10.734375 -9.203125 C 10.734375 -8.429688 10.519531 -7.742188 10.09375 -7.140625 C 9.664062 -6.535156 9.0625 -6.0625 8.28125 -5.71875 C 10.257812 -2.769531 11.550781 -0.863281 12.15625 0 L 9.0625 0 L 5.921875 -5.046875 Z M 4.4375 -5.046875 "/></g></g></g><g fill="#608621" fill-opacity="1"><g transform="translate(212.508725, 370.972118)"><g><path d="M 9.21875 0 L 1.65625 0 L 1.65625 -13.140625 L 9.21875 -13.140625 L 9.21875 -10.859375 L 4.4375 -10.859375 L 4.4375 -7.96875 L 8.890625 -7.96875 L 8.890625 -5.6875 L 4.4375 -5.6875 L 4.4375 -2.296875 L 9.21875 -2.296875 Z M 9.21875 0 "/></g></g></g><g fill="#608621" fill-opacity="1"><g transform="translate(224.677847, 370.972118)"><g><path d="M 12.5625 -6.703125 C 12.5625 -4.535156 11.941406 -2.875 10.703125 -1.71875 C 9.472656 -0.570312 7.695312 0 5.375 0 L 1.65625 0 L 1.65625 -13.140625 L 5.78125 -13.140625 C 7.925781 -13.140625 9.59375 -12.570312 10.78125 -11.4375 C 11.96875 -10.3125 12.5625 -8.734375 12.5625 -6.703125 Z M 9.65625 -6.625 C 9.65625 -9.445312 8.410156 -10.859375 5.921875 -10.859375 L 4.4375 -10.859375 L 4.4375 -2.296875 L 5.640625 -2.296875 C 8.316406 -2.296875 9.65625 -3.738281 9.65625 -6.625 Z M 9.65625 -6.625 "/></g></g></g><g fill="#608621" fill-opacity="1"><g transform="translate(240.163532, 370.972118)"><g><path d="M 1.65625 0 L 1.65625 -13.140625 L 4.4375 -13.140625 L 4.4375 0 Z M 1.65625 0 "/></g></g></g><g fill="#608621" fill-opacity="1"><g transform="translate(248.117308, 370.972118)"><g><path d="M 6.71875 0 L 3.9375 0 L 3.9375 -10.828125 L 0.375 -10.828125 L 0.375 -13.140625 L 10.296875 -13.140625 L 10.296875 -10.828125 L 6.71875 -10.828125 Z M 6.71875 0 "/></g></g></g><g fill="#608621" fill-opacity="1"><g transform="translate(260.636966, 370.972118)"><g/></g></g><g fill="#608621" fill-opacity="1"><g transform="translate(267.278486, 370.972118)"><g><path d="M 9.40625 -3.65625 C 9.40625 -2.46875 8.976562 -1.53125 8.125 -0.84375 C 7.269531 -0.15625 6.082031 0.1875 4.5625 0.1875 C 3.164062 0.1875 1.925781 -0.078125 0.84375 -0.609375 L 0.84375 -3.203125 C 1.726562 -2.804688 2.476562 -2.523438 3.09375 -2.359375 C 3.707031 -2.203125 4.269531 -2.125 4.78125 -2.125 C 5.394531 -2.125 5.863281 -2.238281 6.1875 -2.46875 C 6.507812 -2.707031 6.671875 -3.054688 6.671875 -3.515625 C 6.671875 -3.773438 6.597656 -4.003906 6.453125 -4.203125 C 6.316406 -4.398438 6.109375 -4.59375 5.828125 -4.78125 C 5.546875 -4.96875 4.976562 -5.265625 4.125 -5.671875 C 3.320312 -6.046875 2.71875 -6.40625 2.3125 -6.75 C 1.914062 -7.101562 1.597656 -7.507812 1.359375 -7.96875 C 1.117188 -8.425781 1 -8.96875 1 -9.59375 C 1 -10.75 1.390625 -11.660156 2.171875 -12.328125 C 2.960938 -12.992188 4.054688 -13.328125 5.453125 -13.328125 C 6.128906 -13.328125 6.773438 -13.242188 7.390625 -13.078125 C 8.015625 -12.921875 8.664062 -12.695312 9.34375 -12.40625 L 8.453125 -10.234375 C 7.742188 -10.523438 7.160156 -10.726562 6.703125 -10.84375 C 6.242188 -10.957031 5.796875 -11.015625 5.359375 -11.015625 C 4.828125 -11.015625 4.421875 -10.890625 4.140625 -10.640625 C 3.859375 -10.390625 3.71875 -10.066406 3.71875 -9.671875 C 3.71875 -9.429688 3.773438 -9.21875 3.890625 -9.03125 C 4.003906 -8.851562 4.1875 -8.675781 4.4375 -8.5 C 4.6875 -8.332031 5.273438 -8.023438 6.203125 -7.578125 C 7.429688 -6.992188 8.269531 -6.40625 8.71875 -5.8125 C 9.175781 -5.226562 9.40625 -4.507812 9.40625 -3.65625 Z M 9.40625 -3.65625 "/></g></g></g><g fill="#608621" fill-opacity="1"><g transform="translate(279.27683, 370.972118)"><g><path d="M 13.578125 -6.59375 C 13.578125 -4.414062 13.035156 -2.738281 11.953125 -1.5625 C 10.878906 -0.394531 9.335938 0.1875 7.328125 0.1875 C 5.316406 0.1875 3.769531 -0.394531 2.6875 -1.5625 C 1.601562 -2.738281 1.0625 -4.421875 1.0625 -6.609375 C 1.0625 -8.796875 1.601562 -10.460938 2.6875 -11.609375 C 3.769531 -12.765625 5.320312 -13.34375 7.34375 -13.34375 C 9.363281 -13.34375 10.90625 -12.757812 11.96875 -11.59375 C 13.039062 -10.4375 13.578125 -8.769531 13.578125 -6.59375 Z M 3.984375 -6.59375 C 3.984375 -5.125 4.257812 -4.015625 4.8125 -3.265625 C 5.375 -2.523438 6.210938 -2.15625 7.328125 -2.15625 C 9.546875 -2.15625 10.65625 -3.632812 10.65625 -6.59375 C 10.65625 -9.550781 9.550781 -11.03125 7.34375 -11.03125 C 6.238281 -11.03125 5.398438 -10.65625 4.828125 -9.90625 C 4.265625 -9.164062 3.984375 -8.0625 3.984375 -6.59375 Z M 3.984375 -6.59375 "/></g></g></g><g fill="#608621" fill-opacity="1"><g transform="translate(295.787143, 370.972118)"><g><path d="M 7.234375 -11.015625 C 6.179688 -11.015625 5.367188 -10.617188 4.796875 -9.828125 C 4.222656 -9.035156 3.9375 -7.9375 3.9375 -6.53125 C 3.9375 -3.601562 5.035156 -2.140625 7.234375 -2.140625 C 8.160156 -2.140625 9.28125 -2.367188 10.59375 -2.828125 L 10.59375 -0.5 C 9.507812 -0.0390625 8.300781 0.1875 6.96875 0.1875 C 5.0625 0.1875 3.597656 -0.390625 2.578125 -1.546875 C 1.566406 -2.710938 1.0625 -4.378906 1.0625 -6.546875 C 1.0625 -7.910156 1.3125 -9.109375 1.8125 -10.140625 C 2.3125 -11.171875 3.023438 -11.957031 3.953125 -12.5 C 4.890625 -13.050781 5.984375 -13.328125 7.234375 -13.328125 C 8.515625 -13.328125 9.796875 -13.019531 11.078125 -12.40625 L 10.1875 -10.140625 C 9.695312 -10.367188 9.203125 -10.570312 8.703125 -10.75 C 8.203125 -10.925781 7.710938 -11.015625 7.234375 -11.015625 Z M 7.234375 -11.015625 "/></g></g></g><g fill="#608621" fill-opacity="1"><g transform="translate(309.376376, 370.972118)"><g><path d="M 1.65625 0 L 1.65625 -13.140625 L 4.4375 -13.140625 L 4.4375 0 Z M 1.65625 0 "/></g></g></g><g fill="#608621" fill-opacity="1"><g transform="translate(317.330151, 370.972118)"><g><path d="M 9.21875 0 L 1.65625 0 L 1.65625 -13.140625 L 9.21875 -13.140625 L 9.21875 -10.859375 L 4.4375 -10.859375 L 4.4375 -7.96875 L 8.890625 -7.96875 L 8.890625 -5.6875 L 4.4375 -5.6875 L 4.4375 -2.296875 L 9.21875 -2.296875 Z M 9.21875 0 "/></g></g></g><g fill="#608621" fill-opacity="1"><g transform="translate(329.499272, 370.972118)"><g><path d="M 6.71875 0 L 3.9375 0 L 3.9375 -10.828125 L 0.375 -10.828125 L 0.375 -13.140625 L 10.296875 -13.140625 L 10.296875 -10.828125 L 6.71875 -10.828125 Z M 6.71875 0 "/></g></g></g><g fill="#608621" fill-opacity="1"><g transform="translate(342.018931, 370.972118)"><g><path d="M 5.75 -7.734375 L 8.484375 -13.140625 L 11.484375 -13.140625 L 7.125 -5.109375 L 7.125 0 L 4.359375 0 L 4.359375 -5.03125 L 0 -13.140625 L 3.015625 -13.140625 Z M 5.75 -7.734375 "/></g></g></g></svg>